<?xml version="1.0" encoding="utf-8"?>
<!-- Generator: Adobe Illustrator 24.2.1, SVG Export Plug-In . SVG Version: 6.00 Build 0)  -->
<svg version="1.1" xmlns="http://www.w3.org/2000/svg" xmlns:xlink="http://www.w3.org/1999/xlink" x="0px" y="0px"
	 viewBox="0 0 433 548" style="enable-background:new 0 0 433 548;" xml:space="preserve">
<style type="text/css">
	.st0{display:none;}
	.st1{display:inline;}
	.st2{fill:#FFFFFF;}
</style>
<g id="Layer_1" class="st0">
	<g id="iR68rO.tif" class="st1">
		
			<image style="overflow:visible;" width="2048" height="1695" id="Layer_0_1_" xlink:href="FCD6D8082B5BF688.png"  transform="matrix(1 0 0 1 -814.6119 -562.1567)">
		</image>
	</g>
</g>
<g id="Layer_2">
	<g>
		<g>
			<polygon class="st2" points="201.7,53.7 215.7,63 229.7,53.7 242.3,0 216.6,0 215.5,0 190.3,0.1 			"/>
			<path class="st2" d="M244.4,36l-5.6,24l-23.1,15.5L192.4,60l-5.1-23.9c-25.2,3.7-101.8,23.1-112,121.5l0.3,169.8
				c0,0,31.2,70.3,83.1,84.7c0,0,1.2-148.5-0.3-149.1c-28.2-10.9-43.6-12.3-43.6-12.3l-0.1-45.6c0,0,50.5-2.7,78.8,18.5
				c1.3,1,0.1,66.3,0.1,66.3l23.4,19.9l22.2-20c0,0-1.4-65.3-0.1-66.3c28.3-21.3,78.7-18.8,78.7-18.8l0.1,45.6
				c0,0-15.3,1.5-43.5,12.5c-1.5,0.6,0.3,149.1,0.3,149.1c51.8-14.6,82.8-85,82.8-85l-0.3-169.8C346.7,58.2,269.2,39.5,244.4,36z
				 M253,161.1l-23.8,0l0,23.8l-12.4,0l-1,0l-12.4,0l0-23.8l-23.8,0l0-26.9l23.8,0l0-23.8l12.4,0l1,0l12.4,0l0,23.8l23.8,0
				L253,161.1z"/>
		</g>
		<g>
			<g>
				<path class="st2" d="M38.6,534.5c0,9.7-5.5,14.1-15.6,14.1h-0.2c-10.1,0-15.6-4.3-15.7-14.1l-0.1-40c0-9.3,5.5-14.1,15.6-14.1
					h0.2c10.1,0,15.6,4.7,15.7,14.1l0,11.6l-6.9,0l0-9.9c0-6.9-2.6-9.6-8.9-9.6c-6.3,0-8.9,2.8-8.8,9.6l0.1,36.6
					c0,6.9,2.6,9.6,8.9,9.6c6.3,0,8.9-2.8,8.8-9.6l0-11.5l6.9,0L38.6,534.5z"/>
				<path class="st2" d="M64.8,480.3l0.8,0c10.1,0,15.6,4.5,15.7,14.1l0.1,40c0,9.5-5.5,14.1-15.6,14.1l-0.8,0
					c-10.1,0-15.6-4.5-15.7-14.1l-0.1-40C49.2,484.8,54.7,480.3,64.8,480.3z M65.3,542.4c6.4,0,9.1-2.7,9.1-9.6l-0.1-36.6
					c0-7-2.8-9.6-9.2-9.6c-6.4,0-9.1,2.7-9.1,9.6l0.1,36.6C56.2,539.7,58.9,542.4,65.3,542.4z"/>
				<path class="st2" d="M92.8,547.7L92.6,481l7,0l19.7,50.6l-0.1-50.6l6.4,0l0.2,66.7l-6.6,0l-20-51.5l0.1,51.6L92.8,547.7z"/>
				<path class="st2" d="M164.1,487l-12.2,0l0.1,60.5l-6.9,0l-0.1-60.5l-12.1,0l0-6.2l31.2-0.1L164.1,487z"/>
				<path class="st2" d="M189.2,531l-16.2,0l-3.3,16.5l-6.7,0l13.9-66.7l8.2,0l14.5,66.7l-7.1,0L189.2,531z M188,525l-7-34.7
					l-6.9,34.7L188,525z"/>
				<path class="st2" d="M238.2,534c0,9.7-5.5,14.1-15.6,14.1h-0.2c-10.1,0-15.6-4.3-15.7-14.1l-0.1-40c0-9.3,5.5-14.1,15.6-14.1
					h0.2c10.1,0,15.6,4.7,15.7,14.1l0,11.6l-6.9,0l0-9.9c0-6.9-2.6-9.6-8.9-9.6c-6.3,0-8.9,2.8-8.8,9.6l0.1,36.6
					c0,6.9,2.6,9.6,8.9,9.6c6.3,0,8.9-2.8,8.8-9.6l0-11.5l6.9,0L238.2,534z"/>
				<path class="st2" d="M275.5,486.8l-12.2,0l0.1,60.5l-6.9,0l-0.1-60.5l-12.1,0l0-6.2l31.2-0.1L275.5,486.8z"/>
			</g>
			<g>
				<path class="st2" d="M303.8,504.7l1.7-9.3c0.7-4.2-1.4-5.7-4.7-5.7c-3.2,0-5.9,1.5-6.6,5.7l-0.8,4.6c-0.6,3.4,0.1,5.3,3,7.1
					l7.1,4.4c5.9,3.7,9.2,6.6,7.9,13.3l-1.7,9.6c-1.8,10.3-7.8,13.9-18.8,14l-0.2,0c-9.1,0-15.9-3.5-14.1-13.9l2.1-11.6l10.9,0
					l-1.8,10.1c-0.7,4.1,1.3,5.9,4.7,5.9s6.1-1.8,6.8-5.9l0.9-5.2c0.7-3.6-0.2-5.5-3.2-7.3l-7-4.4c-5.2-3.2-8.9-7.4-7.8-13.3
					l1.5-8.8c1.8-9.9,8.7-13.7,18.8-13.8l0.2,0c8.2,0,15.7,3.8,13.9,13.7l-1.9,10.9L303.8,504.7z"/>
				<path class="st2" d="M338.8,547.5l0.2-14.9l-12.3,0l-4.9,14.9l-11,0l24-66.8l13.9,0l1,66.7L338.8,547.5z M339.1,523.5l0.5-29.6
					l-9.8,29.7L339.1,523.5z"/>
				<path class="st2" d="M366.9,480.7l28.9-0.1l-1.7,9.7l-17.8,0l-3.2,18.8l14.9,0l-1.7,9.7l-14.9,0l-5,28.5l-11.1,0L366.9,480.7z"
					/>
				<path class="st2" d="M390.5,547.4l11.6-66.7l29.3-0.1l-1.7,9.7l-18.2,0l-3.1,18.3l15.2,0l-1.7,9.7l-15.2,0l-3.4,19.3l18.5,0
					l-1.7,9.7L390.5,547.4z"/>
			</g>
		</g>
	</g>
</g>
</svg>
