<?xml version="1.0" encoding="utf-8"?>
<!-- Generator: Adobe Illustrator 24.2.1, SVG Export Plug-In . SVG Version: 6.00 Build 0)  -->
<svg version="1.1" id="b284e515-97d4-40b6-a45d-73d07a6575b3"
	 xmlns="http://www.w3.org/2000/svg" xmlns:xlink="http://www.w3.org/1999/xlink" x="0px" y="0px" viewBox="0 0 989 766.1"
	 style="enable-background:new 0 0 989 766.1;" xml:space="preserve">
<style type="text/css">
	.st0{fill:#00A9C9;}
	.st1{fill:#3F3D56;}
	.st2{fill:#D0CDE1;}
	.st3{fill:#2F2E41;}
	.st4{fill:#FFB8B8;}
	.st5{fill:#575A89;}
	.st6{opacity:0.2;enable-background:new    ;}
	.st7{fill:#A0616A;}
	.st8{opacity:0.1;enable-background:new    ;}
	.st9{fill:url(#SVGID_1_);}
	.st10{fill:#FFFFFF;}
	.st11{fill:#DBDBDB;}
	.st12{fill:url(#SVGID_2_);}
	.st13{fill:url(#SVGID_3_);}
	.st14{fill:#69F0AE;}
</style>
<path class="st0" d="M662.4,422.3c-1.4,0-2.8,0.5-3.9,1.4c-3.3-8.8-8.5-14.4-14.3-14.4s-10.9,5.6-14.3,14.4
	c-1.1-0.9-2.5-1.3-3.9-1.4c-6.6,0-11.9,11.1-11.9,24.8h60.1C674.3,433.4,668.9,422.3,662.4,422.3z"/>
<path class="st1" d="M671.5,447.1h-85v-1.4c0-19.8,7.8-35.4,17.7-35.4c1.6,0,3.2,0.4,4.7,1.2c5-12.2,12.3-19.1,20.2-19.1
	s15.2,6.9,20.2,19.1c1.4-0.8,3-1.2,4.7-1.2c9.9,0,17.7,15.5,17.7,35.4L671.5,447.1z M589.2,444.3h79.5c-0.3-17-7-31.2-14.9-31.2
	c-1.6,0-3.2,0.6-4.5,1.6l-1.5,1.1l-0.6-1.7c-4.5-12-11.2-18.9-18.2-18.9s-13.7,6.9-18.2,18.9l-0.6,1.7l-1.5-1.1
	c-1.3-1-2.9-1.6-4.5-1.6C596.3,413.1,589.6,427.3,589.2,444.3L589.2,444.3z"/>
<path class="st0" d="M385.3,422.3c-1.4,0-2.8,0.5-3.9,1.4c-3.3-8.8-8.5-14.4-14.3-14.4s-10.9,5.6-14.3,14.4
	c-1.1-0.9-2.5-1.3-3.9-1.4c-6.6,0-11.9,11.1-11.9,24.8h60.1C397.2,433.4,391.9,422.3,385.3,422.3z"/>
<path class="st1" d="M394.5,447.1h-85v-1.4c0-19.8,7.8-35.4,17.7-35.4c1.6,0,3.2,0.4,4.7,1.2c5-12.2,12.3-19.1,20.2-19.1
	s15.2,6.9,20.2,19.1c1.4-0.8,3-1.2,4.7-1.2c9.9,0,17.7,15.5,17.7,35.4L394.5,447.1z M312.2,444.3h79.5c-0.3-17-7-31.2-14.9-31.2
	c-1.6,0-3.2,0.6-4.5,1.6l-1.5,1.1l-0.6-1.7c-4.5-12-11.2-18.9-18.2-18.9s-13.7,6.9-18.2,18.9l-0.6,1.7l-1.5-1.1
	c-1.3-1-2.9-1.6-4.5-1.6C319.2,413.1,312.6,427.3,312.2,444.3L312.2,444.3z"/>
<path class="st0" d="M989,236c0.1,81.8-66.2,148.2-148,148.3c-81.8,0.1-148.2-66.2-148.3-148C692.7,155.7,757,89.8,837.6,88
	c0.5,0,0.9,0,1.4,0c0.7,0,1.3,0,2,0c1.7,0,3.4,0,5,0.1c3.7,0.1,7.3,0.4,10.9,0.8c2.1,0.2,4.1,0.5,6.2,0.8c0.2,0,0.5,0.1,0.7,0.1
	c8.5,1.3,16.8,3.3,24.9,6.1C948.7,116.3,989,172.6,989,236z"/>
<ellipse transform="matrix(0.535 -0.8449 0.8449 0.535 132.4265 725.7553)" class="st1" cx="725.5" cy="242.6" rx="1" ry="2.6"/>
<path class="st2" d="M723.4,235.4L723.4,235.4c1.4-2.2,4.2-2.8,6.4-1.4l0,0l58.6,37.1c2.2,1.4,2.8,4.2,1.4,6.4l0,0l0,0l0,0
	L723.4,235.4L723.4,235.4z"/>
<path class="st3" d="M717.9,237.3l1.8-2.9c0.9-1.5,2.9-1.9,4.4-1c0,0,0,0,0,0l66.7,42.3c1.7,1.1,2.3,3.4,1.2,5.2l-1.5,2.4l0,0
	L717.9,237.3L717.9,237.3z"/>
<rect x="729" y="238.3" transform="matrix(0.535 -0.8449 0.8449 0.535 135.7675 728.5136)" class="st2" width="1.3" height="5.3"/>
<rect x="735.2" y="242.2" transform="matrix(0.535 -0.8449 0.8449 0.535 135.3377 735.5081)" class="st2" width="1.3" height="5.3"/>
<circle class="st4" cx="822.4" cy="65.6" r="41.7"/>
<path class="st4" d="M824.9,95c0,0,20.3,32,15.2,41.1c-5.1,9.1-20.8,34-20.8,34s70.1-51.8,61-63c0,0-20.8-17.8-21.8-29L824.9,95z"/>
<path class="st3" d="M881.1,378.5c-33.8,9.4-69.8,6.6-101.8-8l3.2-85.5l0.2-6.6l0.1-2.2l0.1-3.2l0.1-2c0,0,0.1,0,0.4,0
	c0.7,0,2.2-0.2,4.5-0.3c2.6-0.1,6.1-0.3,10.2-0.5c1,0,2-0.1,3-0.1c21.5-0.8,55.2-1,59.6,5.5l0.6,3.8l0.9,6.2l1.8,12.6
	C864.1,298.2,885,339.8,881.1,378.5z"/>
<path class="st5" d="M919.4,159l-36,79.6l-15.6,34.6L862,286l-83.8-1l8.6-58.4c-12.2-31.5,16.8-44.2,16.8-44.2l24.4-26v4.1
	c0,0,23.9-28.4,34.5-44.7s25.4-10.2,25.4-10.2C913.3,103.2,919.4,159,919.4,159z"/>
<path class="st6" d="M883.4,238.7l-15.6,34.6c-5-9.4-8.8-20-8.8-26.3c0-17.3,17.3-8.1,17.3-8.1s-14-76.4-14-99.3
	C862.3,124.3,874.9,191.7,883.4,238.7z"/>
<path class="st4" d="M869.6,244.4l-75.7-1.5c0,0-55.4,4.6-47.2,26.9s52.3,0,52.3,0l88.4,13.7L869.6,244.4z"/>
<path class="st5" d="M883.9,109.8c0,0-26.4,2-26.4,24.9c0,22.9,23.9,104.1,23.9,104.1s-17.3-9.1-17.3,8.1s29,67.6,32,34
	c0,0,43.7,21.3,41.1-18.8s-30-125-30-125S904.2,108.3,883.9,109.8z"/>
<path class="st3" d="M823.8,61.1c-2.9-2.8-2.9-7.6-5.2-10.9c-3.7-5.2-11.4-4.8-17.7-4c-4.2,0.6-8.5,1.2-12.3,2.9
	c-3.5,1.5-6.2,4.5-7.1,8.2c-0.5,2-1.6-3.8-2.7-11.3c-2.3-15.7,5.8-31.2,20.1-38.2c0.1,0,0.2-0.1,0.2-0.1c7.1-3.5,14.6-6.5,22.5-7.4
	s16.3,0.7,22.5,5.7c2.8,2.3,5.1,5.2,8.2,7.2c5.3,3.5,12.1,3.7,18.4,4.4c7.2,0.8,14.3,2.6,20.5,6.3s11.3,9.6,13,16.6
	c2,8.2-1.3,17.8-9.3,21.4c-1.4,0.6-2.6,1.5-3.6,2.7c-6.6,8.1,4,12.5,5.6,19.5c1.3,5.9-4.3,11.2-10.1,12.8c-10.8,3-23.3-3-27.7-13.2
	c-2-4.6-2.4-9.7-3-14.6c-0.6-5.7-15.5-16-5.5-8.2c2,1.5,3.5,3.4,4.5,5.7c3.1,7.3-3.3,11.5-6.7,16.7c-3.8,6-3.8,13.7-0.1,19.7
	c-8.8-4.6-13.3-16.2-9.9-25.6c0.9-2.5,2.3-4.8,3.1-7.3c1.3-3.9,0.2-11.6-5.6-10C831.7,60.8,828.1,65.3,823.8,61.1z"/>
<path class="st0" d="M296,580c0,60.8-37.2,115.5-93.8,137.8c-2.2,0.9-4.4,1.7-6.6,2.4c-2.5,0.8-5,1.6-7.5,2.3
	c-1.8,0.5-3.5,1-5.3,1.4c-27,6.5-55.3,5.3-81.6-3.5c-2.1-0.7-4.1-1.4-6.1-2.2c-2.7-1-5.4-2.2-8.1-3.4c-0.2-0.1-0.4-0.2-0.6-0.3
	c-1-0.5-2.1-1-3.1-1.5h0c-1.4-0.7-2.8-1.4-4.2-2.1c-3.2-1.7-6.3-3.5-9.3-5.4c-1.6-1-3.1-2-4.7-3c-67.7-45.7-85.5-137.7-39.8-205.4
	c21.6-32,55-54.3,92.8-62.1c2.6-0.5,5.2-1,7.9-1.4c1.7-0.3,3.4-0.5,5.1-0.7c1.2-0.1,2.4-0.3,3.6-0.4h0c3.3-0.3,6.6-0.5,10-0.6
	c0.5,0,0.9,0,1.4,0c0.3,0,0.5,0,0.8,0h0c0.4,0,0.8,0,1.2,0c1.7,0,3.4,0,5,0.1c3.7,0.1,7.3,0.4,10.9,0.8c2.1,0.2,4.1,0.5,6.2,0.8
	c0.2,0,0.5,0.1,0.7,0.1c0.7,0.1,1.4,0.2,2,0.3c1.4,0.2,2.9,0.5,4.3,0.8c1.3,0.3,2.7,0.5,4,0.9c4.9,1.1,9.8,2.5,14.5,4.1
	c32.3,11.1,59.9,32.9,77.9,61.9c0.5,0.8,1,1.6,1.5,2.5c0.4,0.6,0.7,1.2,1.1,1.9c0.1,0.2,0.2,0.4,0.4,0.6c0.1,0.1,0.1,0.2,0.2,0.4
	c0.7,1.2,1.3,2.3,1.9,3.5C290.1,532,296,555.8,296,580z"/>
<path class="st7" d="M228.2,527.1c0,0,34.4-30.2,47.1-9.1s-35.8,29.7-38.6,28.6S228.2,527.1,228.2,527.1z"/>
<path class="st5" d="M161.4,549.5c0,0,40.7-13.2,47.6-18.6s13.3-9.3,14.7-8.8s10.6-2.3,10.6-2.3l10.9,30.1c0,0-43.5,12.1-44.5,14.9
	S161.4,549.5,161.4,549.5z"/>
<path class="st3" d="M182.7,723.9c-27,6.5-55.3,5.3-81.6-3.5l1.8-17l1.7-15.9l25.1-38.7l8-12.4l33.1,12l3.4,21.2l5.4,33.9
	L182.7,723.9z"/>
<path class="st3" d="M202.2,717.8c-2.2,0.9-4.4,1.7-6.6,2.4c-2.5,0.8-5,1.6-7.5,2.3c-1.8,0.5-3.5,1-5.3,1.4
	c-27,6.5-55.3,5.3-81.6-3.5c-2.1-0.7-4.1-1.4-6.1-2.2c0.3,5.9,0.1,11.9-0.5,17.8c-2.9-6.9-5.4-14-7.5-21.1c-0.1-0.5-0.3-1-0.4-1.4
	c-0.7-2.4-1.3-4.7-1.9-6.9c-0.6-2.5-1.2-4.8-1.6-7c-1.8-8.4-2.4-13.5-2.4-13.5l19.6-40.6l3.9,0.4l1.6,0.2l9.8,1.1l14.2,1.6l23.1,2.6
	l21.4,18.2l19.2,16.3c0,0,1.6,5.4,4.1,14.5C198.8,705.3,200.4,711.1,202.2,717.8z"/>
<circle class="st7" cx="167.2" cy="404.1" r="34.6"/>
<path class="st7" d="M138.9,405.8l-18.1,38.7l50.8,35.2c0,0-6-41.9,5.3-52.5S138.9,405.8,138.9,405.8z"/>
<path class="st5" d="M178.3,483c0,0-24.1-49.6-43.6-49.6S64,467.9,65.5,475.4s1.5,9,1.5,13.5s-10.5,4.5-1.5,7.5s10.5,6,10.5,6
	L68.5,695c0,0,33.1,12,45.1,7.5s24.1-34.6,24.1-34.6s-3,40.6,9,39.1s57.1-4.5,58.7-10.5s-9-138.4-9-138.4L178.3,483z"/>
<path class="st7" d="M94.4,736L94.4,736c-1.5,13.4-6.2,26.9-18.4,29.7c-20.7,4.9-12.8-37.7-9-54c0.9-3.8,1.5-6.2,1.5-6.2l1.2,0.1
	l14.9,0.9l9.5,0.6c0,0,0.4,2.8,0.7,7.1c0.1,1.2,0.2,2.6,0.2,4.1C95.2,724.1,95.1,730.1,94.4,736z"/>
<path class="st5" d="M100.1,470.9L56.5,582.2c0,0-6,12,0,21.1s-3,63.2,3,75.2s6,33.1,6,33.1l34.6,3l7.5-132.3l39.1-84.2
	C146.7,498,143.7,463.4,100.1,470.9z"/>
<path class="st8" d="M111.4,467.2c0,0-27.1,7.5-36.1,34.6L111.4,467.2z"/>
<path class="st3" d="M144.5,419.9c3.4-0.2,6.7,0.9,10,1.4c12,1.6,24.4-7.1,27-18.9c0.2-1.6,0.7-3.1,1.4-4.5c1.8-3,6-3.6,9.5-2.9
	s6.7,2.3,10.2,2.5c5.4,0.3,10.6-3.1,13.5-7.7s3.7-10.3,3.3-15.7l-2.6,2.7c-1.1-2.2-1.5-4.7-1.2-7.2c-2.8-0.7-5.8,0-7.9,2
	c-2.3,0.2-0.6-4.3-2.3-5.8c-0.7-0.7-1.8-0.5-2.8-0.5c-4.9,0-8.8-3.7-12.7-6.7c-6.7-5.2-14.5-8.8-22.8-10.4
	c-5.5-1.1-11.4-1.2-16.6,0.8c-4.3,1.7-7.9,4.8-11.2,8c-8.2,7.9-15.4,17.1-18.9,28c-2.8,8.9-2.8,18.4-0.2,27.3
	c1.4,4.6,5.5,20.5,11.6,20.9C139.6,433.7,135.1,420.4,144.5,419.9z"/>
<polygon class="st8" points="147,530.5 111.6,582.5 100.2,703.1 "/>
<ellipse transform="matrix(0.5808 -0.814 0.814 0.5808 -285.9084 443.1279)" class="st1" cx="287.3" cy="499.2" rx="2.6" ry="1"/>
<path class="st2" d="M240.9,555.7L240.9,555.7c-2.1-1.5-2.6-4.4-1.1-6.5l0,0l40.3-56.5c1.5-2.1,4.4-2.6,6.5-1.1l0,0l0,0l0,0
	L240.9,555.7L240.9,555.7z"/>
<path class="st3" d="M242.5,561.4l-2.3-1.7c-1.7-1.2-2.1-3.5-0.9-5.2l45.9-64.3c1-1.4,3-1.8,4.4-0.7c0,0,0,0,0,0l2.8,2l0,0
	L242.5,561.4L242.5,561.4L242.5,561.4z"/>
<rect x="280.2" y="498.5" transform="matrix(0.5808 -0.814 0.814 0.5808 -287.8249 439.488)" class="st2" width="5.3" height="1.3"/>
<rect x="276" y="504.5" transform="matrix(0.5808 -0.814 0.814 0.5808 -294.4094 438.532)" class="st2" width="5.3" height="1.3"/>
<rect x="283" y="445" class="st1" width="446" height="2"/>
<g>
	
		<linearGradient id="SVGID_1_" gradientUnits="userSpaceOnUse" x1="690.1699" y1="124.0699" x2="690.1699" y2="455.3894" gradientTransform="matrix(1 0 0 -1 -198.33 695.56)">
		<stop  offset="0" style="stop-color:#808080;stop-opacity:0.25"/>
		<stop  offset="0.54" style="stop-color:#808080;stop-opacity:0.12"/>
		<stop  offset="1" style="stop-color:#808080;stop-opacity:0.1"/>
	</linearGradient>
	<path class="st9" d="M407,240.2h169.6c3.9,0,7,3.1,7,7v317.4c0,3.9-3.1,7-7,7H407c-3.9,0-7-3.1-7-7V247.1
		C400.1,243.3,403.2,240.2,407,240.2z"/>
	<path class="st10" d="M410.3,244.7h163.1c4.3,0,7.8,3.5,7.8,7.8v306.8c0,4.3-3.5,7.8-7.8,7.8H410.3c-4.3,0-7.8-3.5-7.8-7.8V252.4
		C402.5,248.1,406,244.7,410.3,244.7z"/>
	<path class="st0" d="M536.7,252.7c-1.1,7.1-7.1,12.3-14.3,12.3h-61.7c-7.1,0-13.2-5.3-14.3-12.3h-32.7c-3.7,0-6.8,3-6.8,6.8
		c0,0,0,0,0,0v292.6c0,3.7,3,6.8,6.8,6.8c0,0,0,0,0,0h156.1c3.7,0,6.8-3,6.8-6.8c0,0,0,0,0,0V259.5c0-3.7-3-6.8-6.8-6.8c0,0,0,0,0,0
		H536.7z"/>
	<path class="st11" d="M473.3,256.6h37.5c0.6,0,1.1,0.5,1.1,1.1v0.2c0,0.6-0.5,1.1-1.1,1.1h-37.5c-0.6,0-1.1-0.5-1.1-1.1v-0.2
		C472.2,257.1,472.7,256.6,473.3,256.6z"/>
	<circle class="st11" cx="520.4" cy="257.6" r="1.5"/>
	<g>
		
			<linearGradient id="SVGID_2_" gradientUnits="userSpaceOnUse" x1="690.142" y1="291.443" x2="690.142" y2="370.9232" gradientTransform="matrix(1 2.268926e-03 2.268926e-03 -1 -199.0725 694.6766)">
			<stop  offset="0" style="stop-color:#000000;stop-opacity:0.12"/>
			<stop  offset="0.55" style="stop-color:#000000;stop-opacity:9.000000e-02"/>
			<stop  offset="1" style="stop-color:#000000;stop-opacity:2.000000e-02"/>
		</linearGradient>
		<polygon class="st12" points="536.6,338.1 520.4,325.4 481.3,374.9 460.3,358.6 447.1,375.3 477.7,398.7 477.7,398.7 485.3,404.8 
					"/>
		<polygon class="st10" points="535.4,337.8 520.7,326.5 481.9,377.2 460.3,360.6 449,375.3 478,397.4 478,397.4 485.4,403 		"/>
	</g>
	
		<linearGradient id="SVGID_3_" gradientUnits="userSpaceOnUse" x1="491.8398" y1="308.8873" x2="491.8398" y2="343.6156" gradientTransform="matrix(1 0 0 -1 0 768)">
		<stop  offset="0" style="stop-color:#000000;stop-opacity:0.12"/>
		<stop  offset="0.55" style="stop-color:#000000;stop-opacity:9.000000e-02"/>
		<stop  offset="1" style="stop-color:#000000;stop-opacity:2.000000e-02"/>
	</linearGradient>
	<rect x="433.8" y="424.4" class="st13" width="116.1" height="34.7"/>
	<rect x="437.8" y="427.8" class="st14" width="108.2" height="25"/>
</g>
</svg>
