<?xml version="1.0" encoding="utf-8"?>
<!-- Generator: Adobe Illustrator 24.2.1, SVG Export Plug-In . SVG Version: 6.00 Build 0)  -->
<svg version="1.1" id="Layer_1" xmlns="http://www.w3.org/2000/svg" xmlns:xlink="http://www.w3.org/1999/xlink" x="0px" y="0px"
	 viewBox="0 0 71.6 71.3" style="enable-background:new 0 0 71.6 71.3;" xml:space="preserve">
<style type="text/css">
	.st0{fill:#72D4D8;}
	.st1{fill:#F3A72C;}
	.st2{fill:#1BA1E0;}
	.st3{fill:#4BA2A3;}
	.st4{fill:#F46296;}
</style>
<polyline class="st0" points="53.3,35.2 53.3,55.2 21.3,55.2 21.3,35.2 "/>
<rect x="17.3" y="25.2" class="st0" width="40" height="10"/>
<polygon class="st1" points="7.9,1.3 6.7,4 8.3,6.5 5.3,6.2 3.4,8.5 2.8,5.6 0,4.5 2.6,3 2.8,0 5,2 "/>
<polygon class="st1" points="71.6,67.5 68.8,68.5 68,71.3 66.2,69 63.2,69.1 64.9,66.7 63.9,63.9 66.7,64.7 69.1,62.9 69.1,65.9 "/>
<path class="st2" d="M63.2,12.7c-1.4,0-2.6-1.2-2.6-2.6s1.2-2.6,2.6-2.6s2.6,1.2,2.6,2.6S64.7,12.7,63.2,12.7z M63.2,8.4
	c-0.9,0-1.6,0.7-1.6,1.6s0.7,1.6,1.6,1.6c0.9,0,1.6-0.7,1.6-1.6S64.1,8.4,63.2,8.4z"/>
<path class="st2" d="M9.6,67.6C8.1,67.6,7,66.4,7,65c0-1.4,1.2-2.6,2.6-2.6s2.6,1.2,2.6,2.6C12.2,66.4,11,67.6,9.6,67.6z M9.6,63.4
	C8.7,63.4,8,64.1,8,65c0,0.9,0.7,1.6,1.6,1.6s1.6-0.7,1.6-1.6C11.2,64.1,10.5,63.4,9.6,63.4z"/>
<polyline class="st3" points="53.3,35.2 53.3,38 21.3,38 21.3,35.2 "/>
<rect x="35.8" y="23.2" class="st4" width="3" height="32"/>
<path class="st4" d="M39.1,25.3H28.3c-3.6,0-6.5-2.9-6.5-6.5s2.9-6.5,6.5-6.5c8.1,0,10.4,10.7,10.5,11.2L39.1,25.3z M28.3,15.3
	c-1.9,0-3.5,1.6-3.5,3.5s1.6,3.5,3.5,3.5h7C34.5,19.7,32.4,15.3,28.3,15.3z"/>
<path class="st4" d="M46.3,25.3H35.5l0.4-1.8c0.1-0.5,2.3-11.2,10.5-11.2c3.6,0,6.5,2.9,6.5,6.5S49.9,25.3,46.3,25.3z M39.3,22.3h7
	c1.9,0,3.5-1.6,3.5-3.5s-1.6-3.5-3.5-3.5C42.3,15.3,40.2,19.7,39.3,22.3z"/>
</svg>
